# Blender v2.76 (sub 0) OBJ File: 'radar.blend'
# www.blender.org
mtllib radar.mtl
o Radar_Cube.003
v -3.000000 0.500000 1.000000
v -3.000000 6.500000 1.000000
v -5.000000 0.500000 -2.464102
v -5.000000 6.500000 -2.464102
v -2.133975 0.500000 0.500000
v -2.133975 6.500000 0.500000
v -4.133975 0.500000 -2.964102
v -4.133975 6.500000 -2.964102
v -3.000000 0.500000 1.000000
v -3.000000 6.500000 1.000000
v -3.000000 0.500000 0.000000
v -3.000000 6.500000 0.000000
v 4.000001 0.500000 1.000000
v 4.000001 6.500000 1.000000
v 4.000000 0.500000 0.000000
v 4.000000 6.500000 0.000000
v 0.000000 -3.500000 1.000000
v 0.000000 0.500000 1.000000
v 0.000000 -3.500000 0.000000
v 0.000000 0.500000 0.000000
v 1.000000 -3.500000 1.000000
v 1.000000 0.500000 1.000000
v 1.000000 -3.500000 0.000000
v 1.000000 0.500000 0.000000
v 3.133975 0.500000 0.500000
v 3.133975 6.500000 0.500000
v 5.133975 0.500000 -2.964101
v 5.133975 6.500000 -2.964101
v 4.000000 0.500000 1.000000
v 4.000000 6.500000 1.000000
v 6.000000 0.500000 -2.464101
v 6.000000 6.500000 -2.464101
vt 0.156250 0.968750
vt 0.078125 0.968750
vt 0.078125 0.875000
vt 0.156250 0.875000
vt 0.390625 0.968750
vt 0.406250 0.968750
vt 0.406250 0.875000
vt 0.390625 0.875000
vt 0.375000 0.828125
vt 0.296875 0.828125
vt 0.296875 0.734375
vt 0.375000 0.734375
vt 0.000000 0.000000
vt 0.296875 1.000000
vt 0.375000 1.000000
vt 0.375000 0.984375
vt 0.296875 0.984375
vt 0.296875 0.843750
vt 0.375000 0.843750
vt 0.375000 0.859375
vt 0.296875 0.859375
vt 0.031250 0.734375
vt 0.046875 0.734375
vt 0.046875 0.828125
vt 0.031250 0.828125
vt 0.281250 0.828125
vt 0.171875 0.828125
vt 0.171875 0.734375
vt 0.281250 0.734375
vt 0.187500 0.875000
vt 0.203125 0.875000
vt 0.203125 0.968750
vt 0.187500 0.968750
vt 0.281250 0.968750
vt 0.171875 0.968750
vt 0.171875 0.875000
vt 0.281250 0.875000
vt 0.281250 0.984375
vt 0.281250 1.000000
vt 0.171875 1.000000
vt 0.171875 0.984375
vt 0.171875 0.843750
vt 0.171875 0.859375
vt 0.281250 0.859375
vt 0.281250 0.843750
vt 0.015625 0.843750
vt 0.000000 0.843750
vt -0.000000 0.781250
vt 0.015625 0.781250
vt 0.015625 0.921875
vt 0.000000 0.921875
vt 0.000000 0.859375
vt 0.015625 0.859375
vt 0.015625 1.000000
vt -0.000000 1.000000
vt 0.000000 0.937500
vt 0.015625 0.937500
vt 0.015625 0.765625
vt 0.000000 0.765625
vt 0.000000 0.703125
vt 0.015625 0.703125
vt 0.156250 0.828125
vt 0.078125 0.828125
vt 0.078125 0.734375
vt 0.156250 0.734375
vt 0.046875 0.968750
vt 0.062500 0.968750
vt 0.062500 0.875000
vt 0.046875 0.875000
vt 0.375000 0.968750
vt 0.296875 0.968750
vt 0.296875 0.875000
vt 0.375000 0.875000
vt 0.156250 1.000000
vt 0.078125 1.000000
vt 0.078125 0.984375
vt 0.156250 0.984375
vt 0.156250 0.859375
vt 0.078125 0.859375
vt 0.078125 0.843750
vt 0.156250 0.843750
vn -0.866000 0.000000 0.500000
vn -0.500000 0.000000 -0.866000
vn 0.866000 0.000000 -0.500000
vn 0.500000 0.000000 0.866000
vn 0.000000 -1.000000 0.000000
vn 0.000000 1.000000 0.000000
vn -1.000000 0.000000 0.000000
vn 0.000000 0.000000 -1.000000
vn 1.000000 0.000000 -0.000000
vn -0.000000 0.000000 1.000000
vn -0.866000 0.000000 -0.500000
vn 0.500000 0.000000 -0.866000
vn 0.866000 0.000000 0.500000
vn -0.500000 0.000000 0.866000
usemtl Material.001
s off
f 2/1/1 4/2/1 3/3/1 1/4/1
f 4/5/2 8/6/2 7/7/2 3/8/2
f 8/9/3 6/10/3 5/11/3 7/12/3
f 6/13/4 2/13/4 1/13/4 5/13/4
f 1/14/5 3/15/5 7/16/5 5/17/5
f 6/18/6 8/19/6 4/20/6 2/21/6
f 10/22/7 12/23/7 11/24/7 9/25/7
f 12/26/8 16/27/8 15/28/8 11/29/8
f 16/30/9 14/31/9 13/32/9 15/33/9
f 14/34/10 10/35/10 9/36/10 13/37/10
f 9/38/5 11/39/5 15/40/5 13/41/5
f 14/42/6 16/43/6 12/44/6 10/45/6
f 18/46/7 20/47/7 19/48/7 17/49/7
f 20/50/8 24/51/8 23/52/8 19/53/8
f 24/54/9 22/55/9 21/56/9 23/57/9
f 22/58/10 18/59/10 17/60/10 21/61/10
f 26/62/11 28/63/11 27/64/11 25/65/11
f 28/66/12 32/67/12 31/68/12 27/69/12
f 32/70/13 30/71/13 29/72/13 31/73/13
f 30/13/14 26/13/14 25/13/14 29/13/14
f 25/74/5 27/75/5 31/76/5 29/77/5
f 30/78/6 32/79/6 28/80/6 26/81/6
